<?xml version="1.0" encoding="utf-8" standalone="no"?>
<!DOCTYPE svg PUBLIC "-//W3C//DTD SVG 1.1//EN"
  "http://www.w3.org/Graphics/SVG/1.1/DTD/svg11.dtd">
<svg xmlns:xlink="http://www.w3.org/1999/xlink" width="457.92pt" height="462.256205pt" viewBox="0 0 457.92 462.256205" xmlns="http://www.w3.org/2000/svg" version="1.1">
 <metadata>
  <rdf:RDF xmlns:dc="http://purl.org/dc/elements/1.1/" xmlns:cc="http://creativecommons.org/ns#" xmlns:rdf="http://www.w3.org/1999/02/22-rdf-syntax-ns#">
   <cc:Work>
    <dc:type rdf:resource="http://purl.org/dc/dcmitype/StillImage"/>
    <dc:date>2025-02-17T10:37:43.307368</dc:date>
    <dc:format>image/svg+xml</dc:format>
    <dc:creator>
     <cc:Agent>
      <dc:title>Matplotlib v3.9.1, https://matplotlib.org/</dc:title>
     </cc:Agent>
    </dc:creator>
   </cc:Work>
  </rdf:RDF>
 </metadata>
 <defs>
  <style type="text/css">*{stroke-linejoin: round; stroke-linecap: butt}</style>
 </defs>
 <g id="figure_1">
  <g id="patch_1">
   <path d="M 0 462.256205 
L 457.92 462.256205 
L 457.92 0 
L 0 0 
L 0 462.256205 
z
" style="fill: none"/>
  </g>
  <g id="axes_1">
   <g id="patch_2">
    <path d="M 450.72 233.296205 
C 450.72 204.174949 444.983747 175.33686 433.839525 148.432327 
C 422.695303 121.527795 406.359838 97.080043 385.768 76.488206 
C 365.176162 55.896368 340.728411 39.560903 313.823878 28.41668 
C 286.919345 17.272458 258.081256 11.536205 228.96 11.536205 
C 199.838744 11.536205 171.000655 17.272458 144.096122 28.41668 
C 117.191589 39.560903 92.743838 55.896368 72.152 76.488206 
C 51.560162 97.080043 35.224697 121.527795 24.080475 148.432327 
C 12.936253 175.33686 7.2 204.174949 7.2 233.296205 
C 7.2 262.417462 12.936253 291.255551 24.080475 318.160083 
C 35.224697 345.064616 51.560162 369.512367 72.152 390.104205 
C 92.743838 410.696043 117.191589 427.031508 144.096122 438.17573 
C 171.000655 449.319953 199.838744 455.056205 228.96 455.056205 
C 258.081256 455.056205 286.919345 449.319953 313.823878 438.17573 
C 340.728411 427.031508 365.176162 410.696043 385.768 390.104205 
C 406.359838 369.512367 422.695303 345.064616 433.839525 318.160083 
C 444.983747 291.255551 450.72 262.417462 450.72 233.296205 
M 228.96 233.296205 
C 228.96 233.296205 228.96 233.296205 228.96 233.296205 
C 228.96 233.296205 228.96 233.296205 228.96 233.296205 
C 228.96 233.296205 228.96 233.296205 228.96 233.296205 
C 228.96 233.296205 228.96 233.296205 228.96 233.296205 
C 228.96 233.296205 228.96 233.296205 228.96 233.296205 
C 228.96 233.296205 228.96 233.296205 228.96 233.296205 
C 228.96 233.296205 228.96 233.296205 228.96 233.296205 
C 228.96 233.296205 228.96 233.296205 228.96 233.296205 
C 228.96 233.296205 228.96 233.296205 228.96 233.296205 
C 228.96 233.296205 228.96 233.296205 228.96 233.296205 
C 228.96 233.296205 228.96 233.296205 228.96 233.296205 
C 228.96 233.296205 228.96 233.296205 228.96 233.296205 
C 228.96 233.296205 228.96 233.296205 228.96 233.296205 
C 228.96 233.296205 228.96 233.296205 228.96 233.296205 
C 228.96 233.296205 228.96 233.296205 228.96 233.296205 
C 228.96 233.296205 228.96 233.296205 228.96 233.296205 
L 228.96 233.296205 
z
" style="fill: none"/>
   </g>
   <g id="patch_3">
    <path d="M 228.96 233.296205 
C 228.96 233.296205 228.96 233.296205 228.96 233.296205 
C 228.96 233.296205 228.96 233.296205 228.96 233.296205 
C 228.96 233.296205 228.96 233.296205 228.96 233.296205 
C 228.96 233.296205 228.96 233.296205 228.96 233.296205 
C 228.96 233.296205 228.96 233.296205 228.96 233.296205 
C 228.96 233.296205 228.96 233.296205 228.96 233.296205 
C 228.96 233.296205 228.96 233.296205 228.96 233.296205 
C 228.96 233.296205 228.96 233.296205 228.96 233.296205 
C 228.96 233.296205 228.96 233.296205 228.96 233.296205 
C 228.96 233.296205 228.96 233.296205 228.96 233.296205 
C 228.96 233.296205 228.96 233.296205 228.96 233.296205 
C 228.96 233.296205 228.96 233.296205 228.96 233.296205 
C 228.96 233.296205 228.96 233.296205 228.96 233.296205 
C 228.96 233.296205 228.96 233.296205 228.96 233.296205 
C 228.96 233.296205 228.96 233.296205 228.96 233.296205 
C 228.96 233.296205 228.96 233.296205 228.96 233.296205 
L 228.96 183.010491 
C 222.356541 183.010491 215.817291 184.311229 209.71649 186.838263 
C 203.615689 189.365298 198.071981 193.069485 193.40263 197.738836 
C 188.733279 202.408187 185.029092 207.951895 182.502058 214.052696 
C 179.975023 220.153497 178.674286 226.692746 178.674286 233.296205 
C 178.674286 239.899665 179.975023 246.438914 182.502058 252.539715 
C 185.029092 258.640516 188.733279 264.184224 193.40263 268.853575 
C 198.071981 273.522926 203.615689 277.227113 209.71649 279.754148 
C 215.817291 282.281182 222.356541 283.58192 228.96 283.58192 
C 235.563459 283.58192 242.102709 282.281182 248.20351 279.754148 
C 254.304311 277.227113 259.848019 273.522926 264.51737 268.853575 
C 269.186721 264.184224 272.890908 258.640516 275.417942 252.539715 
C 277.944977 246.438914 279.245714 239.899665 279.245714 233.296205 
C 279.245714 226.692746 277.944977 220.153497 275.417942 214.052696 
C 272.890908 207.951895 269.186721 202.408187 264.51737 197.738836 
C 259.848019 193.069485 254.304311 189.365298 248.20351 186.838263 
C 242.102709 184.311229 235.563459 183.010491 228.96 183.010491 
z
" clip-path="url(#p38f05d3736)" style="fill: #251729; stroke: #ffffff; stroke-linejoin: miter"/>
   </g>
   <g id="patch_4">
    <path d="M 228.96 183.010491 
C 235.167839 183.010491 241.322347 184.16004 247.111637 186.400884 
C 252.900928 188.641729 258.225529 191.935365 262.815614 196.114886 
C 267.405698 200.294407 271.182397 205.288 273.954323 210.84261 
C 276.72625 216.39722 278.445776 222.417407 279.025765 228.598093 
C 279.605753 234.778779 279.036238 241.013767 277.346079 246.987094 
C 275.65592 252.960421 272.874159 258.569452 269.141763 263.529945 
C 265.409367 268.490437 260.790467 272.71716 255.51913 275.995921 
C 250.247792 279.274681 244.41459 281.549143 238.315125 282.704046 
C 232.215661 283.858949 225.954736 283.874449 219.849627 282.749761 
C 213.744519 281.625073 207.900127 279.379522 202.61262 276.126902 
C 197.325112 272.874283 192.685341 268.670482 188.928429 263.72853 
C 185.171517 258.786579 182.362018 253.19139 180.642303 247.226505 
C 178.922589 241.26162 178.322209 235.029529 178.871587 228.846047 
C 179.420965 222.662564 181.110662 216.633937 183.855052 211.06567 
C 186.599441 205.497404 190.351369 200.485172 194.920702 196.282975 
C 199.490035 192.080777 204.798263 188.760817 210.576388 186.491335 
L 192.192775 139.686465 
C 180.636526 144.225429 170.02007 150.86535 160.881404 159.269744 
C 151.742737 167.674139 144.238882 177.698602 138.750103 188.835135 
C 133.261324 199.971669 129.88193 212.028923 128.783173 224.395888 
C 127.684417 236.762852 128.885178 249.227035 132.324607 261.156805 
C 135.764035 273.086575 141.383035 284.276952 148.896858 294.160855 
C 156.410681 304.044758 165.690224 312.45236 176.265239 318.957599 
C 186.840254 325.462839 198.529038 329.953941 210.739255 332.203317 
C 222.949471 334.452692 235.471321 334.421692 247.670251 332.111886 
C 259.86918 329.80208 271.535584 325.253157 282.078259 318.695636 
C 292.620934 312.138115 301.858734 303.68467 309.323526 293.763684 
C 316.788318 283.842698 322.35184 272.624636 325.732158 260.677983 
C 329.112475 248.731329 330.251506 236.261353 329.09153 223.899981 
C 327.931553 211.538608 324.4925 199.498235 318.948646 188.389015 
C 313.404793 177.279795 305.851395 167.292609 296.671227 158.933567 
C 287.491059 150.574525 276.841856 143.987252 265.263274 139.505563 
C 253.684693 135.023875 241.375679 132.724777 228.96 132.724777 
z
" clip-path="url(#p38f05d3736)" style="fill: #3f366f; stroke: #ffffff; stroke-linejoin: miter"/>
   </g>
   <g id="patch_5">
    <path d="M 228.96 132.724777 
C 240.031066 132.724777 251.026538 134.552858 261.502023 138.135137 
C 271.977508 141.717415 281.789951 147.004972 290.542772 153.784103 
C 299.295594 160.563235 306.869264 168.741365 312.957684 177.987967 
C 319.046105 187.234568 323.566132 197.423368 326.335085 208.142575 
C 329.104037 218.861782 330.084102 229.965015 329.235668 241.003523 
C 328.387234 252.042031 325.721887 262.865073 321.347352 273.035222 
C 316.972816 283.205372 310.948831 292.583745 303.518861 300.791306 
C 296.088891 308.998866 287.3544 315.92353 277.668404 321.28543 
C 267.982407 326.64733 257.477177 330.373244 246.577293 332.312584 
C 235.67741 334.251924 224.531722 334.378207 213.590696 332.686329 
C 202.64967 330.994451 192.062717 327.507517 182.257719 322.366454 
C 172.452722 317.225391 163.563578 310.500407 155.949552 302.463298 
C 148.335526 294.42619 142.100596 285.186712 137.496753 275.11829 
C 132.89291 265.049867 129.983025 254.289994 128.884703 243.273543 
C 127.786382 232.257092 128.514623 221.134505 131.039994 210.355311 
C 133.565365 199.576118 137.853379 189.287521 143.730731 179.905345 
L 101.116097 153.209915 
C 92.300068 167.283179 85.868047 182.716075 82.079991 198.884864 
C 78.291934 215.053654 77.199573 231.737536 78.847055 248.262212 
C 80.494538 264.786889 84.859366 280.926698 91.76513 296.029332 
C 98.670894 311.131966 108.023289 324.991182 119.444328 337.046845 
C 130.865367 349.102507 144.199083 359.189984 158.906579 366.901578 
C 173.614075 374.613173 189.494505 379.843574 205.906044 382.381391 
C 222.317583 384.919208 239.036114 384.729784 255.38594 381.820773 
C 271.735765 378.911763 287.493611 373.322893 302.022605 365.280042 
C 316.5516 357.237192 329.653336 346.850196 340.798291 334.538856 
C 351.943246 322.227515 360.979225 308.159955 367.541028 292.904731 
C 374.102831 277.649506 378.10085 261.414944 379.373501 244.857182 
C 380.646152 228.29942 379.176056 211.644571 375.022627 195.56576 
C 370.869199 179.486949 364.089157 164.203749 354.956526 150.333847 
C 345.823896 136.463945 334.46339 124.196749 321.334159 114.028052 
C 308.204927 103.859355 293.486262 95.928021 277.773035 90.554603 
C 262.059808 85.181184 245.566599 82.439062 228.96 82.439062 
z
" clip-path="url(#p38f05d3736)" style="fill: #38639d; stroke: #ffffff; stroke-linejoin: miter"/>
   </g>
   <g id="patch_6">
    <path d="M 228.96 82.439062 
C 256.953847 82.439062 284.402819 90.231091 308.221412 104.939257 
C 332.040004 119.647423 351.301002 140.699163 363.8393 165.728078 
C 376.377599 190.756992 381.705104 218.78875 379.222958 246.672338 
C 376.740813 274.555925 366.545641 301.205883 349.783471 323.626524 
L 390.057961 353.73663 
C 412.407522 323.842442 426.001083 288.309165 429.310611 251.131049 
C 432.620139 213.952932 425.516798 176.577254 408.799067 143.205368 
C 392.081336 109.833482 366.400006 81.764496 334.641883 62.153608 
C 302.883759 42.54272 266.28513 32.153348 228.96 32.153348 
z
" clip-path="url(#p38f05d3736)" style="fill: #3491a8; stroke: #ffffff; stroke-linejoin: miter"/>
   </g>
   <g id="matplotlib.axis_1"/>
   <g id="matplotlib.axis_2"/>
   <g id="line2d_1">
    <path d="M 228.96 32.153348 
L 228.96 22.096205 
" clip-path="url(#p38f05d3736)" style="fill: none; stroke-dasharray: 1.85,0.8; stroke-dashoffset: 0; stroke: #808080; stroke-width: 0.5"/>
   </g>
   <g id="line2d_2">
    <path d="M 347.188805 70.568216 
L 353.100245 62.431816 
" clip-path="url(#p38f05d3736)" style="fill: none; stroke-dasharray: 1.85,0.8; stroke-dashoffset: 0; stroke: #808080; stroke-width: 0.5"/>
   </g>
   <g id="line2d_3">
    <path d="M 420.258225 171.139644 
L 429.823136 168.031816 
" clip-path="url(#p38f05d3736)" style="fill: none; stroke-dasharray: 1.85,0.8; stroke-dashoffset: 0; stroke: #808080; stroke-width: 0.5"/>
   </g>
   <g id="line2d_4">
    <path d="M 420.258225 295.452767 
L 429.823136 298.560595 
" clip-path="url(#p38f05d3736)" style="fill: none; stroke-dasharray: 1.85,0.8; stroke-dashoffset: 0; stroke: #808080; stroke-width: 0.5"/>
   </g>
   <g id="line2d_5">
    <path d="M 347.188805 396.024195 
L 353.100245 404.160595 
" clip-path="url(#p38f05d3736)" style="fill: none; stroke-dasharray: 1.85,0.8; stroke-dashoffset: 0; stroke: #808080; stroke-width: 0.5"/>
   </g>
   <g id="line2d_6">
    <path d="M 228.96 384.153348 
L 228.96 394.210491 
" clip-path="url(#p38f05d3736)" style="fill: none; stroke-dasharray: 1.85,0.8; stroke-dashoffset: 0; stroke: #808080; stroke-width: 0.5"/>
   </g>
   <g id="line2d_7">
    <path d="M 140.288396 355.342198 
L 134.376956 363.478597 
" clip-path="url(#p38f05d3736)" style="fill: none; stroke-dasharray: 1.85,0.8; stroke-dashoffset: 0; stroke: #808080; stroke-width: 0.5"/>
   </g>
   <g id="line2d_8">
    <path d="M 85.486331 279.913626 
L 75.92142 283.021454 
" clip-path="url(#p38f05d3736)" style="fill: none; stroke-dasharray: 1.85,0.8; stroke-dashoffset: 0; stroke: #808080; stroke-width: 0.5"/>
   </g>
   <g id="line2d_9">
    <path d="M 85.486331 186.678784 
L 75.92142 183.570956 
" clip-path="url(#p38f05d3736)" style="fill: none; stroke-dasharray: 1.85,0.8; stroke-dashoffset: 0; stroke: #808080; stroke-width: 0.5"/>
   </g>
   <g id="line2d_10">
    <path d="M 169.845597 151.93221 
L 163.934157 143.795811 
" clip-path="url(#p38f05d3736)" style="fill: none; stroke-dasharray: 1.85,0.8; stroke-dashoffset: 0; stroke: #808080; stroke-width: 0.5"/>
   </g>
   <g id="text_1">
    <!-- Array -->
    <g style="fill: #ffffff" transform="translate(215.492813 255.599531) scale(0.1 -0.1)">
     <defs>
      <path id="DejaVuSans-41" d="M 2188 4044 
L 1331 1722 
L 3047 1722 
L 2188 4044 
z
M 1831 4666 
L 2547 4666 
L 4325 0 
L 3669 0 
L 3244 1197 
L 1141 1197 
L 716 0 
L 50 0 
L 1831 4666 
z
" transform="scale(0.015625)"/>
      <path id="DejaVuSans-72" d="M 2631 2963 
Q 2534 3019 2420 3045 
Q 2306 3072 2169 3072 
Q 1681 3072 1420 2755 
Q 1159 2438 1159 1844 
L 1159 0 
L 581 0 
L 581 3500 
L 1159 3500 
L 1159 2956 
Q 1341 3275 1631 3429 
Q 1922 3584 2338 3584 
Q 2397 3584 2469 3576 
Q 2541 3569 2628 3553 
L 2631 2963 
z
" transform="scale(0.015625)"/>
      <path id="DejaVuSans-61" d="M 2194 1759 
Q 1497 1759 1228 1600 
Q 959 1441 959 1056 
Q 959 750 1161 570 
Q 1363 391 1709 391 
Q 2188 391 2477 730 
Q 2766 1069 2766 1631 
L 2766 1759 
L 2194 1759 
z
M 3341 1997 
L 3341 0 
L 2766 0 
L 2766 531 
Q 2569 213 2275 61 
Q 1981 -91 1556 -91 
Q 1019 -91 701 211 
Q 384 513 384 1019 
Q 384 1609 779 1909 
Q 1175 2209 1959 2209 
L 2766 2209 
L 2766 2266 
Q 2766 2663 2505 2880 
Q 2244 3097 1772 3097 
Q 1472 3097 1187 3025 
Q 903 2953 641 2809 
L 641 3341 
Q 956 3463 1253 3523 
Q 1550 3584 1831 3584 
Q 2591 3584 2966 3190 
Q 3341 2797 3341 1997 
z
" transform="scale(0.015625)"/>
      <path id="DejaVuSans-79" d="M 2059 -325 
Q 1816 -950 1584 -1140 
Q 1353 -1331 966 -1331 
L 506 -1331 
L 506 -850 
L 844 -850 
Q 1081 -850 1212 -737 
Q 1344 -625 1503 -206 
L 1606 56 
L 191 3500 
L 800 3500 
L 1894 763 
L 2988 3500 
L 3597 3500 
L 2059 -325 
z
" transform="scale(0.015625)"/>
     </defs>
     <use xlink:href="#DejaVuSans-41"/>
     <use xlink:href="#DejaVuSans-72" x="68.408203"/>
     <use xlink:href="#DejaVuSans-72" x="107.771484"/>
     <use xlink:href="#DejaVuSans-61" x="148.884766"/>
     <use xlink:href="#DejaVuSans-79" x="210.164062"/>
    </g>
    <!-- 16100 -->
    <g style="fill: #ffffff" transform="translate(213.05375 266.797344) scale(0.1 -0.1)">
     <defs>
      <path id="DejaVuSans-31" d="M 794 531 
L 1825 531 
L 1825 4091 
L 703 3866 
L 703 4441 
L 1819 4666 
L 2450 4666 
L 2450 531 
L 3481 531 
L 3481 0 
L 794 0 
L 794 531 
z
" transform="scale(0.015625)"/>
      <path id="DejaVuSans-36" d="M 2113 2584 
Q 1688 2584 1439 2293 
Q 1191 2003 1191 1497 
Q 1191 994 1439 701 
Q 1688 409 2113 409 
Q 2538 409 2786 701 
Q 3034 994 3034 1497 
Q 3034 2003 2786 2293 
Q 2538 2584 2113 2584 
z
M 3366 4563 
L 3366 3988 
Q 3128 4100 2886 4159 
Q 2644 4219 2406 4219 
Q 1781 4219 1451 3797 
Q 1122 3375 1075 2522 
Q 1259 2794 1537 2939 
Q 1816 3084 2150 3084 
Q 2853 3084 3261 2657 
Q 3669 2231 3669 1497 
Q 3669 778 3244 343 
Q 2819 -91 2113 -91 
Q 1303 -91 875 529 
Q 447 1150 447 2328 
Q 447 3434 972 4092 
Q 1497 4750 2381 4750 
Q 2619 4750 2861 4703 
Q 3103 4656 3366 4563 
z
" transform="scale(0.015625)"/>
      <path id="DejaVuSans-30" d="M 2034 4250 
Q 1547 4250 1301 3770 
Q 1056 3291 1056 2328 
Q 1056 1369 1301 889 
Q 1547 409 2034 409 
Q 2525 409 2770 889 
Q 3016 1369 3016 2328 
Q 3016 3291 2770 3770 
Q 2525 4250 2034 4250 
z
M 2034 4750 
Q 2819 4750 3233 4129 
Q 3647 3509 3647 2328 
Q 3647 1150 3233 529 
Q 2819 -91 2034 -91 
Q 1250 -91 836 529 
Q 422 1150 422 2328 
Q 422 3509 836 4129 
Q 1250 4750 2034 4750 
z
" transform="scale(0.015625)"/>
     </defs>
     <use xlink:href="#DejaVuSans-31"/>
     <use xlink:href="#DejaVuSans-36" x="63.623047"/>
     <use xlink:href="#DejaVuSans-31" x="127.246094"/>
     <use xlink:href="#DejaVuSans-30" x="190.869141"/>
     <use xlink:href="#DejaVuSans-30" x="254.492188"/>
    </g>
   </g>
   <g id="text_2">
    <!-- Plasmid Library -->
    <g style="fill: #ffffff" transform="translate(190.381094 305.885246) scale(0.1 -0.1)">
     <defs>
      <path id="DejaVuSans-50" d="M 1259 4147 
L 1259 2394 
L 2053 2394 
Q 2494 2394 2734 2622 
Q 2975 2850 2975 3272 
Q 2975 3691 2734 3919 
Q 2494 4147 2053 4147 
L 1259 4147 
z
M 628 4666 
L 2053 4666 
Q 2838 4666 3239 4311 
Q 3641 3956 3641 3272 
Q 3641 2581 3239 2228 
Q 2838 1875 2053 1875 
L 1259 1875 
L 1259 0 
L 628 0 
L 628 4666 
z
" transform="scale(0.015625)"/>
      <path id="DejaVuSans-6c" d="M 603 4863 
L 1178 4863 
L 1178 0 
L 603 0 
L 603 4863 
z
" transform="scale(0.015625)"/>
      <path id="DejaVuSans-73" d="M 2834 3397 
L 2834 2853 
Q 2591 2978 2328 3040 
Q 2066 3103 1784 3103 
Q 1356 3103 1142 2972 
Q 928 2841 928 2578 
Q 928 2378 1081 2264 
Q 1234 2150 1697 2047 
L 1894 2003 
Q 2506 1872 2764 1633 
Q 3022 1394 3022 966 
Q 3022 478 2636 193 
Q 2250 -91 1575 -91 
Q 1294 -91 989 -36 
Q 684 19 347 128 
L 347 722 
Q 666 556 975 473 
Q 1284 391 1588 391 
Q 1994 391 2212 530 
Q 2431 669 2431 922 
Q 2431 1156 2273 1281 
Q 2116 1406 1581 1522 
L 1381 1569 
Q 847 1681 609 1914 
Q 372 2147 372 2553 
Q 372 3047 722 3315 
Q 1072 3584 1716 3584 
Q 2034 3584 2315 3537 
Q 2597 3491 2834 3397 
z
" transform="scale(0.015625)"/>
      <path id="DejaVuSans-6d" d="M 3328 2828 
Q 3544 3216 3844 3400 
Q 4144 3584 4550 3584 
Q 5097 3584 5394 3201 
Q 5691 2819 5691 2113 
L 5691 0 
L 5113 0 
L 5113 2094 
Q 5113 2597 4934 2840 
Q 4756 3084 4391 3084 
Q 3944 3084 3684 2787 
Q 3425 2491 3425 1978 
L 3425 0 
L 2847 0 
L 2847 2094 
Q 2847 2600 2669 2842 
Q 2491 3084 2119 3084 
Q 1678 3084 1418 2786 
Q 1159 2488 1159 1978 
L 1159 0 
L 581 0 
L 581 3500 
L 1159 3500 
L 1159 2956 
Q 1356 3278 1631 3431 
Q 1906 3584 2284 3584 
Q 2666 3584 2933 3390 
Q 3200 3197 3328 2828 
z
" transform="scale(0.015625)"/>
      <path id="DejaVuSans-69" d="M 603 3500 
L 1178 3500 
L 1178 0 
L 603 0 
L 603 3500 
z
M 603 4863 
L 1178 4863 
L 1178 4134 
L 603 4134 
L 603 4863 
z
" transform="scale(0.015625)"/>
      <path id="DejaVuSans-64" d="M 2906 2969 
L 2906 4863 
L 3481 4863 
L 3481 0 
L 2906 0 
L 2906 525 
Q 2725 213 2448 61 
Q 2172 -91 1784 -91 
Q 1150 -91 751 415 
Q 353 922 353 1747 
Q 353 2572 751 3078 
Q 1150 3584 1784 3584 
Q 2172 3584 2448 3432 
Q 2725 3281 2906 2969 
z
M 947 1747 
Q 947 1113 1208 752 
Q 1469 391 1925 391 
Q 2381 391 2643 752 
Q 2906 1113 2906 1747 
Q 2906 2381 2643 2742 
Q 2381 3103 1925 3103 
Q 1469 3103 1208 2742 
Q 947 2381 947 1747 
z
" transform="scale(0.015625)"/>
      <path id="DejaVuSans-20" transform="scale(0.015625)"/>
      <path id="DejaVuSans-4c" d="M 628 4666 
L 1259 4666 
L 1259 531 
L 3531 531 
L 3531 0 
L 628 0 
L 628 4666 
z
" transform="scale(0.015625)"/>
      <path id="DejaVuSans-62" d="M 3116 1747 
Q 3116 2381 2855 2742 
Q 2594 3103 2138 3103 
Q 1681 3103 1420 2742 
Q 1159 2381 1159 1747 
Q 1159 1113 1420 752 
Q 1681 391 2138 391 
Q 2594 391 2855 752 
Q 3116 1113 3116 1747 
z
M 1159 2969 
Q 1341 3281 1617 3432 
Q 1894 3584 2278 3584 
Q 2916 3584 3314 3078 
Q 3713 2572 3713 1747 
Q 3713 922 3314 415 
Q 2916 -91 2278 -91 
Q 1894 -91 1617 61 
Q 1341 213 1159 525 
L 1159 0 
L 581 0 
L 581 4863 
L 1159 4863 
L 1159 2969 
z
" transform="scale(0.015625)"/>
     </defs>
     <use xlink:href="#DejaVuSans-50"/>
     <use xlink:href="#DejaVuSans-6c" x="60.302734"/>
     <use xlink:href="#DejaVuSans-61" x="88.085938"/>
     <use xlink:href="#DejaVuSans-73" x="149.365234"/>
     <use xlink:href="#DejaVuSans-6d" x="201.464844"/>
     <use xlink:href="#DejaVuSans-69" x="298.876953"/>
     <use xlink:href="#DejaVuSans-64" x="326.660156"/>
     <use xlink:href="#DejaVuSans-20" x="390.136719"/>
     <use xlink:href="#DejaVuSans-4c" x="421.923828"/>
     <use xlink:href="#DejaVuSans-69" x="477.636719"/>
     <use xlink:href="#DejaVuSans-62" x="505.419922"/>
     <use xlink:href="#DejaVuSans-72" x="568.896484"/>
     <use xlink:href="#DejaVuSans-61" x="610.009766"/>
     <use xlink:href="#DejaVuSans-72" x="671.289062"/>
     <use xlink:href="#DejaVuSans-79" x="712.402344"/>
    </g>
    <!-- 15141 -->
    <g style="fill: #ffffff" transform="translate(213.05375 317.083058) scale(0.1 -0.1)">
     <defs>
      <path id="DejaVuSans-35" d="M 691 4666 
L 3169 4666 
L 3169 4134 
L 1269 4134 
L 1269 2991 
Q 1406 3038 1543 3061 
Q 1681 3084 1819 3084 
Q 2600 3084 3056 2656 
Q 3513 2228 3513 1497 
Q 3513 744 3044 326 
Q 2575 -91 1722 -91 
Q 1428 -91 1123 -41 
Q 819 9 494 109 
L 494 744 
Q 775 591 1075 516 
Q 1375 441 1709 441 
Q 2250 441 2565 725 
Q 2881 1009 2881 1497 
Q 2881 1984 2565 2268 
Q 2250 2553 1709 2553 
Q 1456 2553 1204 2497 
Q 953 2441 691 2322 
L 691 4666 
z
" transform="scale(0.015625)"/>
      <path id="DejaVuSans-34" d="M 2419 4116 
L 825 1625 
L 2419 1625 
L 2419 4116 
z
M 2253 4666 
L 3047 4666 
L 3047 1625 
L 3713 1625 
L 3713 1100 
L 3047 1100 
L 3047 0 
L 2419 0 
L 2419 1100 
L 313 1100 
L 313 1709 
L 2253 4666 
z
" transform="scale(0.015625)"/>
     </defs>
     <use xlink:href="#DejaVuSans-31"/>
     <use xlink:href="#DejaVuSans-35" x="63.623047"/>
     <use xlink:href="#DejaVuSans-31" x="127.246094"/>
     <use xlink:href="#DejaVuSans-34" x="190.869141"/>
     <use xlink:href="#DejaVuSans-31" x="254.492188"/>
    </g>
   </g>
   <g id="text_3">
    <!-- DNAse resistant AAVs -->
    <g style="fill: #ffffff" transform="translate(174.634219 356.17096) scale(0.1 -0.1)">
     <defs>
      <path id="DejaVuSans-44" d="M 1259 4147 
L 1259 519 
L 2022 519 
Q 2988 519 3436 956 
Q 3884 1394 3884 2338 
Q 3884 3275 3436 3711 
Q 2988 4147 2022 4147 
L 1259 4147 
z
M 628 4666 
L 1925 4666 
Q 3281 4666 3915 4102 
Q 4550 3538 4550 2338 
Q 4550 1131 3912 565 
Q 3275 0 1925 0 
L 628 0 
L 628 4666 
z
" transform="scale(0.015625)"/>
      <path id="DejaVuSans-4e" d="M 628 4666 
L 1478 4666 
L 3547 763 
L 3547 4666 
L 4159 4666 
L 4159 0 
L 3309 0 
L 1241 3903 
L 1241 0 
L 628 0 
L 628 4666 
z
" transform="scale(0.015625)"/>
      <path id="DejaVuSans-65" d="M 3597 1894 
L 3597 1613 
L 953 1613 
Q 991 1019 1311 708 
Q 1631 397 2203 397 
Q 2534 397 2845 478 
Q 3156 559 3463 722 
L 3463 178 
Q 3153 47 2828 -22 
Q 2503 -91 2169 -91 
Q 1331 -91 842 396 
Q 353 884 353 1716 
Q 353 2575 817 3079 
Q 1281 3584 2069 3584 
Q 2775 3584 3186 3129 
Q 3597 2675 3597 1894 
z
M 3022 2063 
Q 3016 2534 2758 2815 
Q 2500 3097 2075 3097 
Q 1594 3097 1305 2825 
Q 1016 2553 972 2059 
L 3022 2063 
z
" transform="scale(0.015625)"/>
      <path id="DejaVuSans-74" d="M 1172 4494 
L 1172 3500 
L 2356 3500 
L 2356 3053 
L 1172 3053 
L 1172 1153 
Q 1172 725 1289 603 
Q 1406 481 1766 481 
L 2356 481 
L 2356 0 
L 1766 0 
Q 1100 0 847 248 
Q 594 497 594 1153 
L 594 3053 
L 172 3053 
L 172 3500 
L 594 3500 
L 594 4494 
L 1172 4494 
z
" transform="scale(0.015625)"/>
      <path id="DejaVuSans-6e" d="M 3513 2113 
L 3513 0 
L 2938 0 
L 2938 2094 
Q 2938 2591 2744 2837 
Q 2550 3084 2163 3084 
Q 1697 3084 1428 2787 
Q 1159 2491 1159 1978 
L 1159 0 
L 581 0 
L 581 3500 
L 1159 3500 
L 1159 2956 
Q 1366 3272 1645 3428 
Q 1925 3584 2291 3584 
Q 2894 3584 3203 3211 
Q 3513 2838 3513 2113 
z
" transform="scale(0.015625)"/>
      <path id="DejaVuSans-56" d="M 1831 0 
L 50 4666 
L 709 4666 
L 2188 738 
L 3669 4666 
L 4325 4666 
L 2547 0 
L 1831 0 
z
" transform="scale(0.015625)"/>
     </defs>
     <use xlink:href="#DejaVuSans-44"/>
     <use xlink:href="#DejaVuSans-4e" x="77.001953"/>
     <use xlink:href="#DejaVuSans-41" x="151.806641"/>
     <use xlink:href="#DejaVuSans-73" x="220.214844"/>
     <use xlink:href="#DejaVuSans-65" x="272.314453"/>
     <use xlink:href="#DejaVuSans-20" x="333.837891"/>
     <use xlink:href="#DejaVuSans-72" x="365.625"/>
     <use xlink:href="#DejaVuSans-65" x="404.488281"/>
     <use xlink:href="#DejaVuSans-73" x="466.011719"/>
     <use xlink:href="#DejaVuSans-69" x="518.111328"/>
     <use xlink:href="#DejaVuSans-73" x="545.894531"/>
     <use xlink:href="#DejaVuSans-74" x="597.994141"/>
     <use xlink:href="#DejaVuSans-61" x="637.203125"/>
     <use xlink:href="#DejaVuSans-6e" x="698.482422"/>
     <use xlink:href="#DejaVuSans-74" x="761.861328"/>
     <use xlink:href="#DejaVuSans-20" x="801.070312"/>
     <use xlink:href="#DejaVuSans-41" x="832.857422"/>
     <use xlink:href="#DejaVuSans-41" x="904.015625"/>
     <use xlink:href="#DejaVuSans-56" x="966.048828"/>
     <use xlink:href="#DejaVuSans-73" x="1034.457031"/>
    </g>
    <!-- 13509 -->
    <g style="fill: #ffffff" transform="translate(213.05375 367.368772) scale(0.1 -0.1)">
     <defs>
      <path id="DejaVuSans-33" d="M 2597 2516 
Q 3050 2419 3304 2112 
Q 3559 1806 3559 1356 
Q 3559 666 3084 287 
Q 2609 -91 1734 -91 
Q 1441 -91 1130 -33 
Q 819 25 488 141 
L 488 750 
Q 750 597 1062 519 
Q 1375 441 1716 441 
Q 2309 441 2620 675 
Q 2931 909 2931 1356 
Q 2931 1769 2642 2001 
Q 2353 2234 1838 2234 
L 1294 2234 
L 1294 2753 
L 1863 2753 
Q 2328 2753 2575 2939 
Q 2822 3125 2822 3475 
Q 2822 3834 2567 4026 
Q 2313 4219 1838 4219 
Q 1578 4219 1281 4162 
Q 984 4106 628 3988 
L 628 4550 
Q 988 4650 1302 4700 
Q 1616 4750 1894 4750 
Q 2613 4750 3031 4423 
Q 3450 4097 3450 3541 
Q 3450 3153 3228 2886 
Q 3006 2619 2597 2516 
z
" transform="scale(0.015625)"/>
      <path id="DejaVuSans-39" d="M 703 97 
L 703 672 
Q 941 559 1184 500 
Q 1428 441 1663 441 
Q 2288 441 2617 861 
Q 2947 1281 2994 2138 
Q 2813 1869 2534 1725 
Q 2256 1581 1919 1581 
Q 1219 1581 811 2004 
Q 403 2428 403 3163 
Q 403 3881 828 4315 
Q 1253 4750 1959 4750 
Q 2769 4750 3195 4129 
Q 3622 3509 3622 2328 
Q 3622 1225 3098 567 
Q 2575 -91 1691 -91 
Q 1453 -91 1209 -44 
Q 966 3 703 97 
z
M 1959 2075 
Q 2384 2075 2632 2365 
Q 2881 2656 2881 3163 
Q 2881 3666 2632 3958 
Q 2384 4250 1959 4250 
Q 1534 4250 1286 3958 
Q 1038 3666 1038 3163 
Q 1038 2656 1286 2365 
Q 1534 2075 1959 2075 
z
" transform="scale(0.015625)"/>
     </defs>
     <use xlink:href="#DejaVuSans-31"/>
     <use xlink:href="#DejaVuSans-33" x="63.623047"/>
     <use xlink:href="#DejaVuSans-35" x="127.246094"/>
     <use xlink:href="#DejaVuSans-30" x="190.869141"/>
     <use xlink:href="#DejaVuSans-39" x="254.492188"/>
    </g>
   </g>
   <g id="text_4">
    <!-- Inf AAVs -->
    <g style="fill: #ffffff" transform="translate(379.596695 134.707583) rotate(-296.608696) scale(0.1 -0.1)">
     <defs>
      <path id="DejaVuSans-49" d="M 628 4666 
L 1259 4666 
L 1259 0 
L 628 0 
L 628 4666 
z
" transform="scale(0.015625)"/>
      <path id="DejaVuSans-66" d="M 2375 4863 
L 2375 4384 
L 1825 4384 
Q 1516 4384 1395 4259 
Q 1275 4134 1275 3809 
L 1275 3500 
L 2222 3500 
L 2222 3053 
L 1275 3053 
L 1275 0 
L 697 0 
L 697 3053 
L 147 3053 
L 147 3500 
L 697 3500 
L 697 3744 
Q 697 4328 969 4595 
Q 1241 4863 1831 4863 
L 2375 4863 
z
" transform="scale(0.015625)"/>
     </defs>
     <use xlink:href="#DejaVuSans-49"/>
     <use xlink:href="#DejaVuSans-6e" x="29.492188"/>
     <use xlink:href="#DejaVuSans-66" x="92.871094"/>
     <use xlink:href="#DejaVuSans-20" x="128.076172"/>
     <use xlink:href="#DejaVuSans-41" x="159.863281"/>
     <use xlink:href="#DejaVuSans-41" x="231.021484"/>
     <use xlink:href="#DejaVuSans-56" x="293.054688"/>
     <use xlink:href="#DejaVuSans-73" x="361.462891"/>
    </g>
    <!-- 5670 -->
    <g style="fill: #ffffff" transform="translate(373.146698 146.833106) rotate(-296.608696) scale(0.1 -0.1)">
     <defs>
      <path id="DejaVuSans-37" d="M 525 4666 
L 3525 4666 
L 3525 4397 
L 1831 0 
L 1172 0 
L 2766 4134 
L 525 4134 
L 525 4666 
z
" transform="scale(0.015625)"/>
     </defs>
     <use xlink:href="#DejaVuSans-35"/>
     <use xlink:href="#DejaVuSans-36" x="63.623047"/>
     <use xlink:href="#DejaVuSans-37" x="127.246094"/>
     <use xlink:href="#DejaVuSans-30" x="190.869141"/>
    </g>
   </g>
   <g id="text_5">
    <!-- 0% -->
    <g transform="translate(221.027969 14.798437) scale(0.1 -0.1)">
     <defs>
      <path id="DejaVuSans-25" d="M 4653 2053 
Q 4381 2053 4226 1822 
Q 4072 1591 4072 1178 
Q 4072 772 4226 539 
Q 4381 306 4653 306 
Q 4919 306 5073 539 
Q 5228 772 5228 1178 
Q 5228 1588 5073 1820 
Q 4919 2053 4653 2053 
z
M 4653 2450 
Q 5147 2450 5437 2106 
Q 5728 1763 5728 1178 
Q 5728 594 5436 251 
Q 5144 -91 4653 -91 
Q 4153 -91 3862 251 
Q 3572 594 3572 1178 
Q 3572 1766 3864 2108 
Q 4156 2450 4653 2450 
z
M 1428 4353 
Q 1159 4353 1004 4120 
Q 850 3888 850 3481 
Q 850 3069 1003 2837 
Q 1156 2606 1428 2606 
Q 1700 2606 1854 2837 
Q 2009 3069 2009 3481 
Q 2009 3884 1853 4118 
Q 1697 4353 1428 4353 
z
M 4250 4750 
L 4750 4750 
L 1831 -91 
L 1331 -91 
L 4250 4750 
z
M 1428 4750 
Q 1922 4750 2215 4408 
Q 2509 4066 2509 3481 
Q 2509 2891 2217 2550 
Q 1925 2209 1428 2209 
Q 931 2209 642 2551 
Q 353 2894 353 3481 
Q 353 4063 643 4406 
Q 934 4750 1428 4750 
z
" transform="scale(0.015625)"/>
     </defs>
     <use xlink:href="#DejaVuSans-30"/>
     <use xlink:href="#DejaVuSans-25" x="63.623047"/>
    </g>
   </g>
   <g id="text_6">
    <!-- 10% -->
    <g transform="translate(348.398932 49.995575) rotate(-324) scale(0.1 -0.1)">
     <use xlink:href="#DejaVuSans-31"/>
     <use xlink:href="#DejaVuSans-30" x="63.623047"/>
     <use xlink:href="#DejaVuSans-25" x="127.246094"/>
    </g>
   </g>
   <g id="text_7">
    <!-- 20% -->
    <g transform="translate(433.329533 155.207323) rotate(-288) scale(0.1 -0.1)">
     <defs>
      <path id="DejaVuSans-32" d="M 1228 531 
L 3431 531 
L 3431 0 
L 469 0 
L 469 531 
Q 828 903 1448 1529 
Q 2069 2156 2228 2338 
Q 2531 2678 2651 2914 
Q 2772 3150 2772 3378 
Q 2772 3750 2511 3984 
Q 2250 4219 1831 4219 
Q 1534 4219 1204 4116 
Q 875 4013 500 3803 
L 500 4441 
Q 881 4594 1212 4672 
Q 1544 4750 1819 4750 
Q 2544 4750 2975 4387 
Q 3406 4025 3406 3419 
Q 3406 3131 3298 2873 
Q 3191 2616 2906 2266 
Q 2828 2175 2409 1742 
Q 1991 1309 1228 531 
z
" transform="scale(0.015625)"/>
     </defs>
     <use xlink:href="#DejaVuSans-32"/>
     <use xlink:href="#DejaVuSans-30" x="63.623047"/>
     <use xlink:href="#DejaVuSans-25" x="127.246094"/>
    </g>
   </g>
   <g id="text_8">
    <!-- 30% -->
    <g transform="translate(438.578176 313.090475) rotate(-72) scale(0.1 -0.1)">
     <use xlink:href="#DejaVuSans-33"/>
     <use xlink:href="#DejaVuSans-30" x="63.623047"/>
     <use xlink:href="#DejaVuSans-25" x="127.246094"/>
    </g>
   </g>
   <g id="text_9">
    <!-- 40% -->
    <g transform="translate(351.642772 421.061598) rotate(-36) scale(0.1 -0.1)">
     <use xlink:href="#DejaVuSans-34"/>
     <use xlink:href="#DejaVuSans-30" x="63.623047"/>
     <use xlink:href="#DejaVuSans-25" x="127.246094"/>
    </g>
   </g>
   <g id="text_10">
    <!-- 50% -->
    <g transform="translate(217.846719 407.027009) scale(0.1 -0.1)">
     <use xlink:href="#DejaVuSans-35"/>
     <use xlink:href="#DejaVuSans-30" x="63.623047"/>
     <use xlink:href="#DejaVuSans-25" x="127.246094"/>
    </g>
   </g>
   <g id="text_11">
    <!-- 60% -->
    <g transform="translate(117.852762 367.315155) rotate(-324) scale(0.1 -0.1)">
     <use xlink:href="#DejaVuSans-36"/>
     <use xlink:href="#DejaVuSans-30" x="63.623047"/>
     <use xlink:href="#DejaVuSans-25" x="127.246094"/>
    </g>
   </g>
   <g id="text_12">
    <!-- 70% -->
    <g transform="translate(60.297994 276.412618) rotate(-288) scale(0.1 -0.1)">
     <use xlink:href="#DejaVuSans-37"/>
     <use xlink:href="#DejaVuSans-30" x="63.623047"/>
     <use xlink:href="#DejaVuSans-25" x="127.246094"/>
    </g>
   </g>
   <g id="text_13">
    <!-- 80% -->
    <g transform="translate(65.546638 191.885181) rotate(-72) scale(0.1 -0.1)">
     <defs>
      <path id="DejaVuSans-38" d="M 2034 2216 
Q 1584 2216 1326 1975 
Q 1069 1734 1069 1313 
Q 1069 891 1326 650 
Q 1584 409 2034 409 
Q 2484 409 2743 651 
Q 3003 894 3003 1313 
Q 3003 1734 2745 1975 
Q 2488 2216 2034 2216 
z
M 1403 2484 
Q 997 2584 770 2862 
Q 544 3141 544 3541 
Q 544 4100 942 4425 
Q 1341 4750 2034 4750 
Q 2731 4750 3128 4425 
Q 3525 4100 3525 3541 
Q 3525 3141 3298 2862 
Q 3072 2584 2669 2484 
Q 3125 2378 3379 2068 
Q 3634 1759 3634 1313 
Q 3634 634 3220 271 
Q 2806 -91 2034 -91 
Q 1263 -91 848 271 
Q 434 634 434 1313 
Q 434 1759 690 2068 
Q 947 2378 1403 2484 
z
M 1172 3481 
Q 1172 3119 1398 2916 
Q 1625 2713 2034 2713 
Q 2441 2713 2670 2916 
Q 2900 3119 2900 3481 
Q 2900 3844 2670 4047 
Q 2441 4250 2034 4250 
Q 1625 4250 1398 4047 
Q 1172 3844 1172 3481 
z
" transform="scale(0.015625)"/>
     </defs>
     <use xlink:href="#DejaVuSans-38"/>
     <use xlink:href="#DejaVuSans-30" x="63.623047"/>
     <use xlink:href="#DejaVuSans-25" x="127.246094"/>
    </g>
   </g>
   <g id="text_14">
    <!-- 90% -->
    <g transform="translate(150.653804 144.424016) rotate(-36) scale(0.1 -0.1)">
     <use xlink:href="#DejaVuSans-39"/>
     <use xlink:href="#DejaVuSans-30" x="63.623047"/>
     <use xlink:href="#DejaVuSans-25" x="127.246094"/>
    </g>
   </g>
   <g id="text_15"/>
  </g>
  <defs>
   <clipPath id="p38f05d3736">
    <path d="M 450.72 233.296205 
C 450.72 204.174949 444.983747 175.33686 433.839525 148.432327 
C 422.695303 121.527795 406.359838 97.080043 385.768 76.488206 
C 365.176162 55.896368 340.728411 39.560903 313.823878 28.41668 
C 286.919345 17.272458 258.081256 11.536205 228.96 11.536205 
C 199.838744 11.536205 171.000655 17.272458 144.096122 28.41668 
C 117.191589 39.560903 92.743838 55.896368 72.152 76.488206 
C 51.560162 97.080043 35.224697 121.527795 24.080475 148.432327 
C 12.936253 175.33686 7.2 204.174949 7.2 233.296205 
C 7.2 262.417462 12.936253 291.255551 24.080475 318.160083 
C 35.224697 345.064616 51.560162 369.512367 72.152 390.104205 
C 92.743838 410.696043 117.191589 427.031508 144.096122 438.17573 
C 171.000655 449.319953 199.838744 455.056205 228.96 455.056205 
C 258.081256 455.056205 286.919345 449.319953 313.823878 438.17573 
C 340.728411 427.031508 365.176162 410.696043 385.768 390.104205 
C 406.359838 369.512367 422.695303 345.064616 433.839525 318.160083 
C 444.983747 291.255551 450.72 262.417462 450.72 233.296205 
M 228.96 233.296205 
C 228.96 233.296205 228.96 233.296205 228.96 233.296205 
C 228.96 233.296205 228.96 233.296205 228.96 233.296205 
C 228.96 233.296205 228.96 233.296205 228.96 233.296205 
C 228.96 233.296205 228.96 233.296205 228.96 233.296205 
C 228.96 233.296205 228.96 233.296205 228.96 233.296205 
C 228.96 233.296205 228.96 233.296205 228.96 233.296205 
C 228.96 233.296205 228.96 233.296205 228.96 233.296205 
C 228.96 233.296205 228.96 233.296205 228.96 233.296205 
C 228.96 233.296205 228.96 233.296205 228.96 233.296205 
C 228.96 233.296205 228.96 233.296205 228.96 233.296205 
C 228.96 233.296205 228.96 233.296205 228.96 233.296205 
C 228.96 233.296205 228.96 233.296205 228.96 233.296205 
C 228.96 233.296205 228.96 233.296205 228.96 233.296205 
C 228.96 233.296205 228.96 233.296205 228.96 233.296205 
C 228.96 233.296205 228.96 233.296205 228.96 233.296205 
C 228.96 233.296205 228.96 233.296205 228.96 233.296205 
z
"/>
   </clipPath>
  </defs>
 </g>
</svg>
